<svg width="9" height="12" viewBox="0 0 9 12" fill="none" xmlns="http://www.w3.org/2000/svg">
<path d="M4.62848 12C7.22164 12 8.92224 10.5221 8.92224 8.32882C8.92224 6.76423 8.04658 5.55736 5.7239 4.87805L4.91248 4.63957C3.75282 4.29991 3.32344 3.92773 3.32344 3.38211C3.32344 2.80397 3.80015 2.48238 4.642 2.48238C5.66304 2.48238 6.75846 3.09304 7.52254 3.79043L9 1.80307C7.84035 0.67931 6.28174 0 4.62848 0C2.12998 0 0.38205 1.44535 0.38205 3.67119C0.38205 5.38754 1.43013 6.5113 3.37078 7.0533L4.0402 7.24119C5.48723 7.6495 5.98084 7.95664 5.98084 8.5673C5.98084 9.19603 5.47033 9.51762 4.61158 9.51762C3.34035 9.51762 2.28889 9.0262 1.43013 8.20958L0 10.1319C1.19347 11.3207 2.86364 12 4.62848 12V12Z" fill="#413E65"/>
</svg>
