<svg width="23" height="27" viewBox="0 0 23 27" fill="none" xmlns="http://www.w3.org/2000/svg">
<path d="M13.1117 0.935791C9.71999 0.935791 6.36185 2.88607 5.0499 5.59475V3.92077C5.0499 1.32751 3.04011 1.19613 2.63758 1.19613C1.44672 1.19613 0.174011 1.9118 0.174011 3.92077V24.1394C0.174011 26.8324 2.31331 26.9684 2.74196 26.9684C3.1706 26.9684 5.31089 26.8324 5.31089 24.1394V13.3008C5.31089 8.58487 7.98321 5.29102 11.8091 5.29102C15.5148 5.29102 17.3168 7.72296 17.3168 12.7267V24.1394C17.3168 26.8324 19.4571 26.9684 19.8858 26.9684C20.3144 26.9684 22.4537 26.8324 22.4537 24.1394V11.1135C22.4537 6.19358 19.9994 0.937321 13.1117 0.937321V0.935791Z" fill="#413E65"/>
</svg>
