<svg width="27" height="31" viewBox="0 0 27 31" fill="none" xmlns="http://www.w3.org/2000/svg">
<path d="M22.5223 0.44662C21.6428 -0.0416048 19.1214 0.260271 16.0931 1.1977C10.7931 4.82053 6.32009 10.1579 6.00795 18.7288C5.95111 18.9337 5.42837 18.7009 5.32497 18.6375C3.89378 15.8943 3.32677 13.0057 4.52178 8.83869C4.74452 8.46785 4.0163 8.01132 3.88537 8.14171C3.62306 8.40445 2.52959 9.56933 1.80333 10.8291C-1.79656 17.074 0.557612 25.0758 6.85584 28.5776C13.1528 32.0849 21.1044 29.8225 24.6105 23.5236C28.6667 16.2534 24.9003 1.77478 22.5225 0.446839L22.5223 0.44662Z" fill="#413E65"/>
</svg>
