<svg width="13" height="33" viewBox="0 0 13 33" fill="none" xmlns="http://www.w3.org/2000/svg">
<path d="M10.4426 11.864C12.6901 11.864 12.8038 10.1151 12.8038 9.76467C12.8038 8.72472 12.1832 7.61308 10.4426 7.61308H5.82105V2.93829C5.82105 0.850089 4.46627 0.109283 3.30525 0.109283C2.87661 0.109283 0.737305 0.245357 0.737305 2.93829V25.1373C0.737305 30.2603 3.26426 32.9681 8.04614 32.9681C9.28344 32.9681 10.4893 32.7491 11.2774 32.382C12.1813 31.931 12.6994 31.1893 12.6994 30.3479C12.6994 29.1608 11.8384 28.2999 10.6514 28.2999C10.4221 28.2999 10.096 28.3567 9.73635 28.4601C9.29655 28.5702 8.99841 28.6129 8.67228 28.6129C6.72676 28.6129 5.82105 27.3429 5.82105 24.6155V11.8618H10.4426V11.864Z" fill="#413E65"/>
</svg>
