<svg width="24" height="28" viewBox="0 0 24 28" fill="none" xmlns="http://www.w3.org/2000/svg">
<path d="M12.6277 0.93579C9.34225 0.93579 6.28227 1.85082 4.01257 3.51036C3.24282 4.04143 2.86827 4.70398 2.86827 5.53704C2.86827 6.6841 3.74415 7.58327 4.86419 7.58327C5.34868 7.58327 5.891 7.39037 6.3885 7.04182C8.33972 5.74109 10.1734 5.1345 12.1581 5.1345C15.956 5.1345 18.1363 7.06609 18.1363 10.4346V10.9928C9.61058 11.0021 0.939026 12.0317 0.939026 19.4489C0.939026 24.7871 5.50093 27.1772 10.0219 27.1772C13.6223 27.1772 16.4978 25.7505 18.3427 23.0492V24.3482C18.3427 26.2826 19.6416 26.9685 20.7561 26.9685C20.9907 26.9685 23.0631 26.8949 23.0631 24.3482V10.7463C23.0631 4.60201 19.161 0.934479 12.6273 0.934479L12.6277 0.93579ZM17.0556 14.7748H18.1364V15.9582C18.1364 20.2864 15.3803 23.0827 11.1165 23.0827C9.95923 23.0827 6.18183 22.8134 6.18183 19.3444C6.18172 15.2482 12.3874 14.7748 17.0556 14.7748V14.7748Z" fill="#413E65"/>
</svg>
