<svg width="26" height="26" viewBox="0 0 26 26" fill="none" xmlns="http://www.w3.org/2000/svg">
<path d="M22.6962 0.196564C21.5092 0.196564 20.6483 0.888953 20.1357 2.25122L13.1077 19.9244L6.13342 2.25122C5.5874 0.868515 4.73295 0.196564 3.52067 0.196564C2.10445 0.196564 0.951843 1.30165 0.951843 2.66031C0.951843 2.99662 0.989988 3.43271 1.27426 4.11384L9.3509 23.1849C10.3134 25.4856 11.8964 25.9683 13.0555 25.9683C14.2138 25.9683 15.7978 25.4856 16.7622 23.186L24.8914 4.00891C25.1691 3.3362 25.2121 2.84229 25.2121 2.60851C25.2121 1.23411 24.1293 0.196891 22.6962 0.196891V0.196564Z" fill="#413E65"/>
</svg>
