<svg width="26" height="28" viewBox="0 0 26 28" fill="none" xmlns="http://www.w3.org/2000/svg">
<path d="M13.0617 0.935791C5.59549 0.935791 0.176086 6.4865 0.176086 14.1344C0.176086 21.845 5.58139 27.2302 13.3219 27.2302C17.2316 27.2302 20.327 26.0076 22.7887 23.4909C23.5239 22.6969 23.603 21.9319 23.603 21.6394C23.603 20.3927 22.6759 19.487 21.3985 19.487C20.7546 19.487 20.2161 19.7302 19.5983 20.3014C18.2044 21.6003 16.3687 22.9271 13.3219 22.9271C9.085 22.9271 5.63931 19.7461 5.42226 15.661H22.2851C24.1188 15.661 25.0095 14.8037 25.0095 13.0408C25.0095 12.5217 25.0095 12.1472 24.9052 11.4082C23.9967 4.8511 19.5698 0.936665 13.0622 0.936665L13.0617 0.935791ZM13.0617 5.03013C17.1103 5.03013 19.7082 7.61028 19.8684 11.7746H5.4275C5.80664 7.92057 9.0651 5.03013 13.0615 5.03013H13.0617Z" fill="#413E65"/>
</svg>
