<svg width="175" height="34" viewBox="0 0 175 34" fill="none" xmlns="http://www.w3.org/2000/svg">
<g clip-path="url(#clip0)">
<path d="M22.5223 3.44662C21.6428 2.9584 19.1214 3.26027 16.0931 4.1977C10.7931 7.82053 6.32009 13.1579 6.00795 21.7288C5.95111 21.9337 5.42837 21.7009 5.32497 21.6375C3.89378 18.8943 3.32677 16.0057 4.52178 11.8387C4.74452 11.4678 4.0163 11.0113 3.88537 11.1417C3.62306 11.4045 2.52959 12.5693 1.80333 13.8291C-1.79656 20.074 0.557612 28.0758 6.85584 31.5776C13.1528 35.0849 21.1044 32.8225 24.6105 26.5236C28.6667 19.2534 24.9003 4.77478 22.5225 3.44684L22.5223 3.44662Z" fill="#413E65"/>
<path d="M45.0617 6.93579C37.5955 6.93579 32.1761 12.4865 32.1761 20.1344C32.1761 27.845 37.5814 33.2302 45.3219 33.2302C49.2316 33.2302 52.327 32.0076 54.7887 29.4909C55.5239 28.6969 55.603 27.9319 55.603 27.6394C55.603 26.3927 54.6759 25.487 53.3985 25.487C52.7546 25.487 52.2161 25.7302 51.5983 26.3014C50.2044 27.6003 48.3687 28.9271 45.3219 28.9271C41.085 28.9271 37.6393 25.7461 37.4223 21.661H54.2851C56.1188 21.661 57.0095 20.8037 57.0095 19.0408C57.0095 18.5217 57.0095 18.1472 56.9052 17.4082C55.9967 10.8511 51.5698 6.93667 45.0622 6.93667L45.0617 6.93579ZM45.0617 11.0301C49.1103 11.0301 51.7082 13.6103 51.8684 17.7746H37.4275C37.8066 13.9206 41.0651 11.0301 45.0615 11.0301H45.0617Z" fill="#413E65"/>
<path d="M73.1117 6.93579C69.72 6.93579 66.3619 8.88607 65.0499 11.5947V9.92077C65.0499 7.32751 63.0401 7.19613 62.6376 7.19613C61.4467 7.19613 60.174 7.9118 60.174 9.92077V30.1394C60.174 32.8324 62.3133 32.9684 62.742 32.9684C63.1706 32.9684 65.3109 32.8324 65.3109 30.1394V19.3008C65.3109 14.5849 67.9832 11.291 71.8091 11.291C75.5148 11.291 77.3168 13.723 77.3168 18.7267V30.1394C77.3168 32.8324 79.4571 32.9684 79.8858 32.9684C80.3144 32.9684 82.4537 32.8324 82.4537 30.1394V17.1135C82.4537 12.1936 79.9994 6.93732 73.1117 6.93732V6.93579Z" fill="#413E65"/>
<path d="M105.696 7.19656C104.509 7.19656 103.648 7.88895 103.136 9.25122L96.1077 26.9244L89.1334 9.25122C88.5874 7.86851 87.7329 7.19656 86.5207 7.19656C85.1045 7.19656 83.9518 8.30165 83.9518 9.66031C83.9518 9.99662 83.99 10.4327 84.2743 11.1138L92.3509 30.1849C93.3134 32.4856 94.8964 32.9683 96.0555 32.9683C97.2138 32.9683 98.7978 32.4856 99.7622 30.186L107.891 11.0089C108.169 10.3362 108.212 9.84229 108.212 9.60851C108.212 8.23411 107.129 7.19689 105.696 7.19689V7.19656Z" fill="#413E65"/>
<path d="M120.628 6.93579C117.342 6.93579 114.282 7.85082 112.013 9.51036C111.243 10.0414 110.868 10.704 110.868 11.537C110.868 12.6841 111.744 13.5833 112.864 13.5833C113.349 13.5833 113.891 13.3904 114.389 13.0418C116.34 11.7411 118.173 11.1345 120.158 11.1345C123.956 11.1345 126.136 13.0661 126.136 16.4346V16.9928C117.611 17.0021 108.939 18.0317 108.939 25.4489C108.939 30.7871 113.501 33.1772 118.022 33.1772C121.622 33.1772 124.498 31.7505 126.343 29.0492V30.3482C126.343 32.2826 127.642 32.9685 128.756 32.9685C128.991 32.9685 131.063 32.8949 131.063 30.3482V16.7463C131.063 10.602 127.161 6.93448 120.627 6.93448L120.628 6.93579ZM125.056 20.7748H126.136V21.9582C126.136 26.2864 123.38 29.0827 119.117 29.0827C117.959 29.0827 114.182 28.8134 114.182 25.3444C114.182 21.2482 120.387 20.7748 125.056 20.7748V20.7748Z" fill="#413E65"/>
<path d="M144.443 11.864C146.69 11.864 146.804 10.1151 146.804 9.76467C146.804 8.72472 146.183 7.61308 144.443 7.61308H139.821V2.93829C139.821 0.850089 138.466 0.109283 137.305 0.109283C136.877 0.109283 134.737 0.245357 134.737 2.93829V25.1373C134.737 30.2603 137.264 32.9681 142.046 32.9681C143.283 32.9681 144.489 32.7491 145.277 32.382C146.181 31.931 146.699 31.1893 146.699 30.3479C146.699 29.1608 145.838 28.2999 144.651 28.2999C144.422 28.2999 144.096 28.3567 143.736 28.4601C143.297 28.5702 142.998 28.6129 142.672 28.6129C140.727 28.6129 139.821 27.3429 139.821 24.6155V11.8618H144.443V11.864Z" fill="#413E65"/>
<path d="M161.427 6.93579C153.657 6.93579 148.021 12.4428 148.021 20.0294C148.021 23.7232 149.387 27.0898 151.865 29.5086C154.325 31.908 157.721 33.2293 161.427 33.2293C169.099 33.2293 174.885 27.5547 174.885 20.0297C174.885 12.4429 169.224 6.93601 161.427 6.93601L161.427 6.93579ZM161.427 28.8737C156.099 28.8737 153.313 24.4242 153.313 20.0289C153.313 13.989 157.519 11.2383 161.427 11.2383C165.335 11.2383 169.541 13.989 169.541 20.0289C169.541 26.1062 165.335 28.8737 161.427 28.8737Z" fill="#413E65"/>
</g>
<defs>
<clipPath id="clip0">
<rect width="175" height="33.3385" fill="white"/>
</clipPath>
</defs>
</svg>
