<svg width="175" height="27" viewBox="0 0 175 27" fill="none" xmlns="http://www.w3.org/2000/svg">
<path d="M33 22.3166C31.7614 22.3166 31.0702 21.5215 31.0702 20.119V13H28V20.1006C28 23.2184 29.814 25 33 25C36.186 25 38 23.2184 38 20.1006V13H34.9298V20.119C34.9298 21.5215 34.2386 22.3166 33 22.3166V22.3166Z" fill="#413E65"/>
<path d="M43.6285 25C46.2216 25 47.9222 23.5221 47.9222 21.3288C47.9222 19.7642 47.0466 18.5574 44.7239 17.8781L43.9125 17.6396C42.7528 17.2999 42.3234 16.9277 42.3234 16.3821C42.3234 15.804 42.8002 15.4824 43.642 15.4824C44.663 15.4824 45.7585 16.093 46.5225 16.7904L48 14.8031C46.8403 13.6793 45.2817 13 43.6285 13C41.13 13 39.3821 14.4453 39.3821 16.6712C39.3821 18.3875 40.4301 19.5113 42.3708 20.0533L43.0402 20.2412C44.4872 20.6495 44.9808 20.9566 44.9808 21.5673C44.9808 22.196 44.4703 22.5176 43.6116 22.5176C42.3403 22.5176 41.2889 22.0262 40.4301 21.2096L39 23.1319C40.1935 24.3207 41.8636 25 43.6285 25V25Z" fill="#413E65"/>
<path d="M57.5555 25H61L56.4641 13H52.532L48 25H51.3477L52.1334 22.7605H56.7737L57.5555 25ZM52.9887 20.3223L54.4632 16.1247L55.9184 20.3223H52.9887Z" fill="#413E65"/>
</svg>
